<svg width="26" height="29" viewBox="0 0 26 29" fill="none" xmlns="http://www.w3.org/2000/svg">
<path d="M4.44411 16.2786C3.97306 16.2768 3.50627 16.3679 3.0705 16.5468C2.63458 16.7258 2.23829 16.989 1.90433 17.3215C1.57038 17.654 1.30534 18.0491 1.12441 18.4842C0.943484 18.9193 0.850232 19.3858 0.85 19.8571V19.8571C0.85 22.8135 2.30967 25.0441 4.5793 26.4927L4.57939 26.4928C6.8088 27.9136 9.80206 28.5786 13 28.5786C16.1979 28.5786 19.1912 27.9136 21.4206 26.4928L21.4206 26.4928C23.6904 25.0458 25.15 22.8117 25.15 19.8571C25.15 18.908 24.773 17.9978 24.1019 17.3267C23.4307 16.6556 22.5205 16.2786 21.5714 16.2786H4.44411ZM4.44411 16.2786C4.44428 16.2786 4.44444 16.2786 4.4446 16.2786L4.444 16.4285V16.2786H4.44411ZM20.3372 24.7929L20.337 24.793C18.5345 25.9436 15.9563 26.5643 13 26.5643C10.0437 26.5643 7.46554 25.9436 5.66299 24.793L5.66297 24.793C3.90068 23.6685 2.86429 22.0455 2.86429 19.8571C2.86429 18.993 3.56415 18.2929 4.444 18.2929H21.5714C21.9863 18.2929 22.3842 18.4577 22.6775 18.751C22.9709 19.0444 23.1357 19.4423 23.1357 19.8571C23.1357 22.0439 22.1009 23.6702 20.3372 24.7929ZM13 0.85C11.1416 0.85 9.3593 1.58825 8.0452 2.90234C6.73111 4.21644 5.99286 5.99873 5.99286 7.85714C5.99286 9.71555 6.73111 11.4978 8.0452 12.8119C9.3593 14.126 11.1416 14.8643 13 14.8643C14.8584 14.8643 16.6407 14.126 17.9548 12.8119C19.2689 11.4978 20.0071 9.71555 20.0071 7.85714C20.0071 5.99873 19.2689 4.21644 17.9548 2.90234C16.6407 1.58825 14.8584 0.85 13 0.85ZM8.00714 7.85714C8.00714 6.53296 8.53317 5.263 9.46952 4.32666C10.4059 3.39032 11.6758 2.86429 13 2.86429C14.3242 2.86429 15.5941 3.39032 16.5305 4.32666C17.4668 5.263 17.9929 6.53295 17.9929 7.85714C17.9929 9.18133 17.4668 10.4513 16.5305 11.3876C15.5941 12.324 14.3242 12.85 13 12.85C11.6758 12.85 10.4059 12.324 9.46952 11.3876C8.53317 10.4513 8.00714 9.18133 8.00714 7.85714Z" fill="#2E2E2E" stroke="#2E2E2E" stroke-width="0.3"/>
</svg>
