<svg width="23" height="21" viewBox="0 0 23 21" fill="none" xmlns="http://www.w3.org/2000/svg">
<path d="M19.9258 5.61243H3.0498V13.1523C7.21981 17.8655 14.4705 18.1713 19.0226 13.8261L19.7285 13.1523L19.9258 5.61243Z" fill="#D2D2D2"/>
<path d="M12.4371 0.228148L22.5315 5.39863C23.1562 5.71921 23.1562 6.61521 22.5315 6.9358L12.4371 12.1063C11.8452 12.4104 11.1548 12.4104 10.5629 12.1063L0.468549 6.9358C-0.156183 6.61521 -0.156183 5.71921 0.468549 5.39863L10.5629 0.228148C10.8525 0.0782388 11.1739 0 11.5 0C11.8261 0 12.1475 0.0782388 12.4371 0.228148Z" fill="#BDBDBD"/>
<path d="M10.8094 5.79318C10.9656 5.45615 11.3684 5.32463 11.6972 5.48903L17.2129 8.31677C17.4349 8.43185 17.5664 8.65379 17.5664 8.9004V14.0627C17.878 14.2143 18.1275 14.469 18.2728 14.7836C18.4181 15.0982 18.4503 15.4533 18.3637 15.7889V15.8053C18.3555 15.8382 18.3473 15.8793 18.3309 15.9122C18.3309 15.9204 18.3226 15.9286 18.3226 15.9369C18.3144 15.9697 18.298 16.0026 18.2815 16.0355C18.2815 16.0437 18.2733 16.0519 18.2733 16.0519C18.2322 16.1424 18.1747 16.2328 18.1171 16.3068C18.1089 16.3232 18.1007 16.3314 18.0843 16.3479L18.4706 18.1563C18.521 18.3892 18.5185 18.6305 18.4634 18.8623C18.4082 19.0941 18.3018 19.3106 18.152 19.496C18.0022 19.6813 17.8127 19.8306 17.5976 19.9331C17.3824 20.0356 17.1471 20.0885 16.9088 20.088C16.6705 20.0885 16.4351 20.0356 16.22 19.9331C16.0048 19.8306 15.8154 19.6813 15.6655 19.496C15.5157 19.3106 15.4093 19.0941 15.3542 18.8623C15.2991 18.6305 15.2966 18.3892 15.3469 18.1563L15.7333 16.3479C15.5278 16.093 15.4045 15.7724 15.4045 15.419C15.4045 15.2135 15.4456 15.0162 15.5196 14.8436C15.5196 14.8354 15.5278 14.8271 15.536 14.8189C15.5442 14.7942 15.5607 14.7614 15.5771 14.7367C15.5935 14.7038 15.61 14.6709 15.6346 14.6381C15.6429 14.6298 15.6429 14.6216 15.6511 14.6134C15.799 14.3832 16.0128 14.1942 16.2594 14.0709V9.30318L11.1218 6.67273C10.8012 6.50833 10.6532 6.11376 10.8094 5.79318Z" fill="#878787"/>
</svg>
