<svg width="25" height="18" viewBox="0 0 25 18" fill="none" xmlns="http://www.w3.org/2000/svg">
<path d="M0.414552 8.02755C0.149114 8.28108 0 8.6249 0 8.98339C0 9.34188 0.149114 9.68569 0.414552 9.93922L8.42422 17.5873C8.55483 17.7164 8.71107 17.8194 8.88381 17.8902C9.05656 17.9611 9.24235 17.9984 9.43035 17.9999C9.61835 18.0015 9.80479 17.9673 9.9788 17.8993C10.1528 17.8313 10.3109 17.731 10.4438 17.604C10.5768 17.4771 10.6819 17.3261 10.7531 17.16C10.8243 16.9938 10.8601 16.8158 10.8585 16.6363C10.8569 16.4568 10.8178 16.2794 10.7436 16.1144C10.6694 15.9495 10.5615 15.8003 10.4263 15.6756L4.83353 10.3353L23.5841 10.3353C23.9596 10.3353 24.3198 10.1929 24.5853 9.93937C24.8508 9.68583 25 9.34195 25 8.98339C25 8.62482 24.8508 8.28095 24.5853 8.02741C24.3198 7.77387 23.9596 7.63143 23.5841 7.63143L4.83353 7.63143L10.4263 2.29118C10.6842 2.0362 10.8269 1.69469 10.8237 1.34021C10.8205 0.985733 10.6716 0.646645 10.409 0.395981C10.1465 0.145317 9.7914 0.00313187 9.42016 5.14984e-05C9.04892 -0.00302887 8.69126 0.13324 8.42422 0.379511L0.414552 8.02755Z" fill="white"/>
</svg>
