<svg width="9" height="12" viewBox="0 0 9 12" fill="none" xmlns="http://www.w3.org/2000/svg">
<path d="M8.7408 6.49405C8.82074 6.439 8.8861 6.36535 8.93125 6.27942C8.97641 6.1935 9 6.09788 9 6.00081C9 5.90374 8.97641 5.80813 8.93125 5.72221C8.8861 5.63628 8.82074 5.56262 8.7408 5.50758L0.941336 0.107152C0.851376 0.0446415 0.746008 0.00798512 0.63668 0.00116348C0.527352 -0.0056591 0.418245 0.0176153 0.321214 0.0684576C0.224183 0.1193 0.142939 0.195765 0.086309 0.289545C0.0296788 0.383326 -0.000171795 0.490834 7.43741e-07 0.60039L7.43741e-07 11.4012C0.000452158 11.5105 0.0306866 11.6177 0.0874525 11.7111C0.144218 11.8045 0.225368 11.8806 0.322174 11.9313C0.418981 11.9821 0.527781 12.0054 0.636876 11.9989C0.74597 11.9924 0.85123 11.9563 0.941336 11.8945L8.7408 6.49405Z" fill="#2E2E2E"/>
</svg>
